<svg width="20" height="18" viewBox="0 0 20 18" fill="none" xmlns="http://www.w3.org/2000/svg">
<path fill-rule="evenodd" clip-rule="evenodd" d="M13.4163 6.87562L8.91625 3.87563C8.68605 3.72204 8.38998 3.70769 8.14601 3.83831C7.90204 3.96892 7.74982 4.22327 7.75 4.5V10.5C7.74982 10.7767 7.90204 11.0311 8.14601 11.1617C8.38998 11.2923 8.68605 11.278 8.91625 11.1244L13.4163 8.12438C13.6252 7.98533 13.7507 7.75098 13.7507 7.5C13.7507 7.24902 13.6252 7.01467 13.4163 6.87562V6.87562ZM9.25 9.09844V5.90625L11.6481 7.5L9.25 9.09844ZM18.25 0.75H1.75C0.921573 0.75 0.25 1.42157 0.25 2.25V12.75C0.25 13.5784 0.921573 14.25 1.75 14.25H18.25C19.0784 14.25 19.75 13.5784 19.75 12.75V2.25C19.75 1.42157 19.0784 0.75 18.25 0.75V0.75ZM18.25 12.75H1.75V2.25H18.25V12.75V12.75ZM19.75 16.5C19.75 16.9142 19.4142 17.25 19 17.25H1C0.585786 17.25 0.25 16.9142 0.25 16.5C0.25 16.0858 0.585786 15.75 1 15.75H19C19.4142 15.75 19.75 16.0858 19.75 16.5V16.5Z" fill="#2C3E50"/>
</svg>
